<?xml version="1.0" encoding="utf-8"?>
<!-- Generator: Adobe Illustrator 22.1.0, SVG Export Plug-In . SVG Version: 6.00 Build 0)  -->
<svg version="1.1" id="Capa_1" xmlns="http://www.w3.org/2000/svg" xmlns:xlink="http://www.w3.org/1999/xlink" x="0px" y="0px"
	 viewBox="0 0 1920 1080" style="enable-background:new 0 0 1920 1080;" xml:space="preserve">
<style type="text/css">
	.st0{fill:#264653;}
	.st1{fill:#2A9D8F;}
	.st2{fill:#FFFFFF;}
	.st3{fill:none;}
	.st4{fill:#E5F9F6;}
</style>
<g>
	<circle class="st0" cx="594.1" cy="543.7" r="216.8"/>
	<circle class="st1" cx="584.7" cy="534.4" r="214.9"/>
	<polygon class="st0" points="640.8,579.2 648.3,583 653.1,591.7 640.8,599.8 614.6,599.8 	"/>
	<g>
		<path class="st0" d="M670.7,616.6c-9.4,8.1-21.8,15.1-33.4,19.4c-11.6,4.3-23.7,6.5-36.1,6.5c-9.6,0-18.8-1.2-27.6-3.7
			c-8.9-2.5-17.1-6-24.9-10.5c-7.7-4.5-14.8-10-21.1-16.4c-6.4-6.4-11.8-13.4-16.4-21.1c-4.5-7.7-8.1-16-10.5-24.9
			c-2.5-8.9-3.7-18.1-3.7-27.6c0-9.6,1.2-18.8,3.7-27.7c2.5-8.9,6-17.2,10.5-24.9c4.5-7.7,10-14.8,16.4-21.1
			c6.4-6.4,13.4-11.8,21.1-16.4c7.7-4.5,16-8.1,24.9-10.5c8.9-2.5,18.1-3.7,27.6-3.7c12.5,0,24.5,2.1,36.1,6.4
			c11.6,4.3,20.3,13.1,29.7,21.3c0,0-24.3,39.2-24.3,39.2c-24.3-26.2-62.3-32.2-86.9-7.9c-5.8,5.8-10.4,12.6-13.8,20.4
			c-3.4,7.8-5.1,16.1-5.1,24.9c0,8.8,1.7,17.1,5.1,24.8c3.4,7.7,8,14.5,13.8,20.3c5.8,5.8,12.6,10.4,20.4,13.8
			c7.8,3.4,16.1,5.1,25,5.1c8.8,0,17.2-1.7,25.3-5.1c8.1-3.4,15-8.3,20.9-14.7L670.7,616.6z"/>
	</g>
	<g>
		<path class="st2" d="M661.3,613.7c-9.4,8.1-19.9,14.2-31.5,18.5c-11.6,4.3-23.7,6.5-36.1,6.5c-9.6,0-18.8-1.2-27.6-3.7
			c-8.9-2.5-17.1-6-24.9-10.5c-7.7-4.5-14.8-10-21.1-16.4c-6.4-6.4-11.8-13.4-16.4-21.1c-4.5-7.7-8.1-16-10.5-24.9
			c-2.5-8.9-3.7-18.1-3.7-27.6c0-9.6,1.2-18.8,3.7-27.7c2.5-8.9,6-17.2,10.5-24.9c4.5-7.7,10-14.8,16.4-21.1
			c6.4-6.4,13.4-11.8,21.1-16.4c7.7-4.5,16-8.1,24.9-10.5c8.9-2.5,18.1-3.7,27.6-3.7c12.5,0,24.5,2.1,36.1,6.4
			c11.6,4.3,22.1,10.5,31.5,18.6L640,490.2c-5.9-6.4-12.9-11.3-20.9-14.7c-8.1-3.4-16.5-5.1-25.3-5.1c-8.9,0-17.2,1.7-25,5.1
			c-7.8,3.4-14.6,7.9-20.4,13.7c-5.8,5.8-10.4,12.6-13.8,20.4c-3.4,7.8-5.1,16.1-5.1,24.9c0,8.8,1.7,17.1,5.1,24.8s8,14.5,13.8,20.3
			c5.8,5.8,12.6,10.4,20.4,13.8c7.8,3.4,16.1,5.1,25,5.1c8.8,0,17.2-1.7,25.3-5.1c8.1-3.4,15-8.3,20.9-14.7L661.3,613.7z"/>
	</g>
	<path class="st3" d="M593.7,470.4c-8.9,0-17.2,1.7-25,5.1c-7.8,3.4-14.6,7.9-20.4,13.7c-5.8,5.8-10.4,12.6-13.8,20.4
		c-3.4,7.8-5.1,16.1-5.1,24.9c0,8.8,1.7,17.1,5.1,24.8c2.4,5.6,5.5,10.6,9.2,15.2l90-90c-4.4-3.6-9.3-6.6-14.8-8.9
		C611,472.1,602.5,470.4,593.7,470.4z"/>
	<path class="st4" d="M640,490.2l18.6-30.5l-24.7,24.7C635.9,486.2,638,488.1,640,490.2z"/>
	<path class="st2" d="M534.6,559.3c-3.4-7.7-5.1-16-5.1-24.8c0-8.8,1.7-17.1,5.1-24.9c3.4-7.8,8-14.6,13.8-20.4
		c5.8-5.8,12.6-10.3,20.4-13.7c7.8-3.4,16.1-5.1,25-5.1c8.8,0,17.2,1.7,25.3,5.1c5.4,2.3,10.3,5.3,14.8,8.9l24.7-24.7l2.8-4.6
		c-9.4-8.1-19.9-14.4-31.5-18.6c-11.6-4.3-23.7-6.4-36.1-6.4c-9.6,0-18.8,1.2-27.6,3.7c-8.9,2.5-17.1,6-24.9,10.5
		c-7.7,4.5-14.8,10-21.1,16.4c-6.4,6.4-11.8,13.4-16.4,21.1c-4.5,7.7-8.1,16-10.5,24.9c-2.5,8.9-3.7,18.1-3.7,27.7
		c0,9.6,1.2,18.8,3.7,27.6c2.5,8.9,6,17.1,10.5,24.9c3.3,5.7,7.2,11,11.5,16l28.5-28.5C540.1,569.9,537,564.8,534.6,559.3z"/>
	<path class="st4" d="M619,593.3c-8.1,3.4-16.5,5.1-25.3,5.1c-8.9,0-17.2-1.7-25-5.1c-7.8-3.4-14.6-8-20.4-13.8
		c-1.6-1.6-3.2-3.3-4.6-5.1l-28.5,28.5c1.5,1.8,3.2,3.5,4.8,5.2c6.4,6.4,13.4,11.8,21.1,16.4c7.7,4.5,16,8.1,24.9,10.5
		c8.9,2.5,18.1,3.7,27.6,3.7c12.5,0,24.5-2.2,36.1-6.5c11.6-4.3,22.1-10.5,31.5-18.5L640,578.6C634.1,585,627.1,589.8,619,593.3z"/>
</g>
<g>
	<path class="st1" d="M951,478.1c-1,10.8-5,19.1-11.9,25.2c-6.9,6-16.1,9-27.6,9c-8,0-15.1-1.9-21.2-5.7
		c-6.1-3.8-10.8-9.2-14.2-16.2c-3.3-7-5.1-15.2-5.2-24.4v-9.4c0-9.5,1.7-17.9,5.1-25.1c3.4-7.2,8.2-12.8,14.5-16.8
		c6.3-3.9,13.6-5.9,21.8-5.9c11.1,0,20.1,3,26.9,9c6.8,6,10.7,14.6,11.8,25.6h-17.4c-0.8-7.2-2.9-12.5-6.3-15.7
		c-3.4-3.2-8.4-4.8-14.9-4.8c-7.6,0-13.5,2.8-17.6,8.4c-4.1,5.6-6.2,13.7-6.3,24.5v8.9c0,10.9,1.9,19.2,5.9,25
		c3.9,5.7,9.6,8.6,17.1,8.6c6.9,0,12-1.5,15.5-4.6c3.5-3.1,5.7-8.2,6.6-15.4H951z"/>
	<path class="st1" d="M1023,487.5H984l-8.2,23.5h-18.2l38.1-100.8h15.7l38.2,100.8h-18.3L1023,487.5z M988.9,473.3h29.2l-14.6-41.8
		L988.9,473.3z"/>
	<path class="st1" d="M1098,472.2h-19.5v38.8H1061V410.1h35.5c11.6,0,20.6,2.6,26.9,7.8c6.3,5.2,9.5,12.8,9.5,22.7
		c0,6.7-1.6,12.4-4.9,16.9c-3.3,4.6-7.8,8.1-13.6,10.5l22.6,42v0.9h-18.8L1098,472.2z M1078.5,458h18c5.9,0,10.5-1.5,13.8-4.5
		c3.3-3,5-7.1,5-12.2c0-5.4-1.5-9.6-4.6-12.5c-3.1-3-7.7-4.5-13.7-4.6h-18.5V458z"/>
	<path class="st1" d="M1167,496.9h45.8v14h-63.3V410.1h17.5V496.9z"/>
	<path class="st1" d="M1302.2,463.2c0,9.9-1.7,18.5-5.1,26c-3.4,7.5-8.3,13.2-14.6,17.2c-6.3,4-13.7,6-21.9,6c-8.2,0-15.5-2-21.8-6
		c-6.4-4-11.3-9.7-14.8-17.1c-3.5-7.4-5.3-15.9-5.3-25.6V458c0-9.8,1.7-18.5,5.2-26c3.5-7.5,8.4-13.3,14.7-17.3c6.3-4,13.6-6,21.8-6
		s15.5,2,21.8,5.9c6.3,3.9,11.3,9.6,14.7,17c3.5,7.4,5.2,16,5.3,25.9V463.2z M1284.7,457.9c0-11.2-2.1-19.7-6.3-25.7
		c-4.2-6-10.2-8.9-18-8.9c-7.6,0-13.5,3-17.8,8.9c-4.3,5.9-6.5,14.3-6.5,25.2v5.8c0,11.1,2.2,19.6,6.5,25.7c4.3,6,10.3,9.1,18,9.1
		c7.8,0,13.7-3,17.9-8.9c4.2-5.9,6.3-14.5,6.3-25.9V457.9z"/>
	<path class="st1" d="M1372.4,485c0-4.4-1.6-7.8-4.7-10.2c-3.1-2.4-8.7-4.8-16.9-7.3c-8.1-2.4-14.6-5.2-19.4-8.2
		c-9.2-5.8-13.8-13.3-13.8-22.6c0-8.1,3.3-14.8,9.9-20.1c6.6-5.3,15.2-7.9,25.8-7.9c7,0,13.3,1.3,18.8,3.9c5.5,2.6,9.8,6.3,12.9,11
		c3.1,4.8,4.7,10.1,4.7,15.9h-17.4c0-5.3-1.7-9.4-5-12.4c-3.3-3-8-4.5-14.2-4.5c-5.7,0-10.2,1.2-13.3,3.7c-3.2,2.4-4.7,5.9-4.7,10.2
		c0,3.7,1.7,6.8,5.1,9.2c3.4,2.5,9,4.9,16.9,7.2c7.8,2.3,14.1,5,18.9,8c4.8,3,8.2,6.4,10.5,10.2c2.2,3.9,3.3,8.4,3.3,13.5
		c0,8.4-3.2,15.1-9.7,20c-6.4,5-15.2,7.4-26.2,7.4c-7.3,0-14-1.4-20.1-4.1c-6.1-2.7-10.9-6.4-14.3-11.2c-3.4-4.8-5.1-10.3-5.1-16.6
		h17.5c0,5.7,1.9,10.2,5.7,13.3c3.8,3.1,9.2,4.7,16.3,4.7c6.1,0,10.7-1.2,13.7-3.7S1372.4,489,1372.4,485z"/>
	<path class="st1" d="M944.7,584H908v97.1h-3.7V584h-36.7v-3.7h77.1V584z"/>
	<path class="st1" d="M1031.8,638.2c0,8.7-1.6,16.4-4.7,23.2c-3.1,6.7-7.6,11.9-13.3,15.6c-5.8,3.7-12.4,5.5-19.9,5.5
		c-11.4,0-20.5-4-27.6-12.1c-7-8.1-10.5-19-10.5-32.7v-14.5c0-8.7,1.6-16.4,4.7-23.1c3.1-6.7,7.6-11.9,13.4-15.6s12.4-5.5,19.9-5.5
		c7.5,0,14.2,1.8,20,5.5s10.3,8.9,13.4,15.6c3.1,6.8,4.7,14.5,4.7,23.1V638.2z M1028.1,623c0-12.2-3.1-22-9.3-29.3
		c-6.2-7.4-14.5-11-25.1-11c-10.4,0-18.7,3.7-24.9,11c-6.2,7.3-9.3,17.3-9.3,29.9v14.7c0,8,1.4,15.1,4.2,21.3
		c2.8,6.2,6.8,10.9,11.9,14.2c5.2,3.3,11.2,5,18.1,5c10.5,0,18.9-3.7,25-11c6.1-7.3,9.2-17.4,9.2-30.1V623z"/>
	<path class="st1" d="M1093.2,638h-35v43.1h-3.7V580.3h32.1c10.1,0,18.2,2.6,24.1,7.8c6,5.2,9,12.3,9,21.3c0,6.9-2.1,12.9-6.4,18
		c-4.3,5.1-9.7,8.3-16.3,9.6l26.9,43.1v1h-3.9L1093.2,638z M1058.3,634.2h31.8c7.8,0,14-2.4,18.8-7.1c4.8-4.7,7.2-10.6,7.2-17.8
		c0-7.8-2.6-14-7.9-18.6c-5.3-4.5-12.5-6.8-21.7-6.8h-28.1V634.2z"/>
	<path class="st1" d="M1186,638h-35v43.1h-3.7V580.3h32.1c10.1,0,18.2,2.6,24.1,7.8c6,5.2,9,12.3,9,21.3c0,6.9-2.1,12.9-6.4,18
		c-4.3,5.1-9.7,8.3-16.3,9.6l26.9,43.1v1h-3.9L1186,638z M1151.1,634.2h31.8c7.8,0,14-2.4,18.8-7.1c4.8-4.7,7.2-10.6,7.2-17.8
		c0-7.8-2.6-14-7.9-18.6c-5.3-4.5-12.5-6.8-21.7-6.8h-28.1V634.2z"/>
	<path class="st1" d="M1294.7,631.1h-50.5v46.3h57.6v3.7h-61.3V580.3h61.3v3.7h-57.6v43.3h50.5V631.1z"/>
	<path class="st1" d="M1381.6,656.9c0-4.3-1-7.9-3-10.9c-2-3-5.2-5.6-9.5-7.9s-10.8-4.6-19.6-7c-8.7-2.4-15.3-4.8-19.6-7.3
		c-4.4-2.4-7.6-5.3-9.6-8.5c-2-3.2-3-7.2-3-11.8c0-7.3,3.1-13.3,9.3-17.8c6.2-4.5,14.2-6.8,24.2-6.8c6.5,0,12.3,1.3,17.4,3.8
		c5.1,2.5,9.1,6,11.9,10.6c2.8,4.5,4.2,9.7,4.2,15.4h-3.7c0-7.5-2.8-13.7-8.3-18.7c-5.5-4.9-12.7-7.4-21.5-7.4c-8.9,0-16,2-21.5,5.9
		c-5.5,3.9-8.2,8.9-8.2,14.9c0,6,2.4,10.9,7.1,14.6c4.8,3.7,12.6,7,23.5,9.8c10.9,2.8,18.9,6.1,24,9.9c6.5,4.8,9.7,11.1,9.7,19.1
		c0,5.1-1.4,9.6-4.3,13.5c-2.9,3.9-6.9,6.9-12.2,9s-11.2,3.2-17.7,3.2c-7.3,0-13.8-1.2-19.7-3.6c-5.8-2.4-10.2-5.9-13.1-10.4
		c-2.9-4.5-4.4-9.8-4.4-15.9h3.7c0,8.3,3.1,14.7,9.3,19.3c6.2,4.6,14.2,6.9,24.2,6.9c8.8,0,16.1-2,21.8-6.1
		C1378.7,668.7,1381.6,663.4,1381.6,656.9z"/>
</g>
<polygon class="st0" points="1489.3,545 1549.5,579.7 1549.5,510.3 "/>
<g>
	<rect x="1547.3" y="450.6" class="st0" width="3.7" height="188.8"/>
</g>
</svg>
